<svg width="26" height="30" viewBox="0 0 26 30" fill="none" xmlns="http://www.w3.org/2000/svg">
<path d="M24 9.5C22.9786 9.5 22 9.97857 22 11V18.5714C22 19.5929 22.9786 20.5 24 20.5C25.0214 20.5 26 19.5929 26 18.5714V11.1429C26 10.1215 25.0214 9.5 24 9.5ZM2 9.5C0.978571 9.5 0 10.1215 0 11.1429V18.5714C0 19.5929 0.978571 20.5 2 20.5C3.02143 20.5 4 19.5929 4 18.5714V11.1429C4 10.1215 3.02137 9.5 2 9.5ZM5 21.3572C5 22.8957 5.89004 24.1429 7.42857 24.1429H8.35714V27.8572C8.35714 28.8786 9.19286 29.7143 10.2143 29.7143C11.2357 29.7143 12.0714 28.8786 12.0714 27.8572V24.1429H13.9286V27.8572C13.9286 28.8786 14.7643 29.7143 15.7857 29.7143C16.8071 29.7143 17.6429 28.8786 17.6429 27.8572V24.1429H18.5714C20.11 24.1429 21 22.8957 21 21.3572V11H5V21.3572ZM16.4415 2.59695L17.6168 0.339183C17.6759 0.225955 17.6313 0.0850443 17.5181 0.02608C17.405 -0.0328842 17.2639 0.0115711 17.205 0.124799L16.0118 2.4168C15.0775 2.05559 14.062 1.85716 13 1.85716C11.9381 1.85716 10.9226 2.05559 9.98806 2.4168L8.79496 0.124857C8.736 0.0116291 8.59515 -0.0328262 8.48186 0.0261381C8.36858 0.0851024 8.32418 0.225955 8.38314 0.339241L9.55837 2.59706C6.92848 3.78732 5.33022 6.01348 5 9H21C20.67 6.01337 19.0714 3.78726 16.4415 2.59695ZM9.28571 7.84645C8.5421 7.84645 7.93929 7.24363 7.93929 6.50002C7.93929 5.75641 8.5421 5.15359 9.28571 5.15359C10.0293 5.15359 10.6321 5.75641 10.6321 6.50002C10.6321 7.24363 10.0293 7.84645 9.28571 7.84645ZM16.7143 7.84645C15.9707 7.84645 15.3678 7.24363 15.3678 6.50002C15.3678 5.75641 15.9707 5.15359 16.7143 5.15359C17.4578 5.15359 18.0607 5.75641 18.0607 6.50002C18.0607 7.24363 17.4578 7.84645 16.7143 7.84645Z" />
</svg>
