<svg width="22" height="27" viewBox="0 0 22 27" fill="none" xmlns="http://www.w3.org/2000/svg">
<path d="M16.194 0C16.2568 0 16.3196 0 16.3859 0C16.54 1.90305 15.8136 3.325 14.9308 4.35473C14.0646 5.37736 12.8784 6.36917 10.96 6.21868C10.832 4.34289 11.5596 3.02639 12.4412 1.99903C13.2588 1.04158 14.7578 0.189594 16.194 0Z" />
<path d="M22 19.8079C22 19.8269 22 19.8435 22 19.8613C21.4608 21.4941 20.6918 22.8936 19.7533 24.1923C18.8966 25.3713 17.8467 26.958 15.9721 26.958C14.3523 26.958 13.2763 25.9164 11.6162 25.888C9.86007 25.8595 8.89432 26.7589 7.2887 26.9852C7.10503 26.9852 6.92136 26.9852 6.74125 26.9852C5.56221 26.8146 4.61069 25.8809 3.91748 25.0395C1.87342 22.5535 0.293871 19.3422 0 15.2328C0 14.8299 0 14.4282 0 14.0253C0.124421 11.0842 1.55348 8.69299 3.45298 7.5341C4.45546 6.91792 5.83357 6.39298 7.36809 6.6276C8.02575 6.72951 8.69762 6.95465 9.28655 7.17742C9.84466 7.3919 10.5426 7.77227 11.2038 7.75213C11.6517 7.73909 12.0973 7.50566 12.5487 7.34095C13.8712 6.86341 15.1675 6.31596 16.8762 6.57309C18.9298 6.88355 20.3873 7.79597 21.2878 9.20371C19.5507 10.3093 18.1773 11.9753 18.4119 14.8204C18.6205 17.4048 20.123 18.9168 22 19.8079Z" />
</svg>
