<svg width="17" height="10" viewBox="0 0 17 10" fill="none" xmlns="http://www.w3.org/2000/svg">
<path fill-rule="evenodd" clip-rule="evenodd" d="M8.33129 10C6.52174 10 4.9087 9.3304 3.48809 8.33921C2.16572 7.4185 1.00303 6.21145 0 5C1.12585 3.6652 2.55056 2.3304 4.10219 1.37445C5.4573 0.54185 6.90658 0 8.33129 0C9.756 0 11.2053 0.54185 12.5604 1.37445C14.1161 2.3304 15.5408 3.6652 16.6667 5C15.6636 6.21145 14.5009 7.4185 13.1745 8.33921C11.758 9.3304 10.1449 10 8.33129 10ZM8.33333 7.77778C9.86746 7.77778 11.1111 6.53412 11.1111 5C11.1111 3.46588 9.86746 2.22222 8.33333 2.22222C6.79921 2.22222 5.55556 3.46588 5.55556 5C5.55556 6.53412 6.79921 7.77778 8.33333 7.77778Z" />
</svg>




