<svg width="48" height="48" viewBox="0 0 48 48" fill="none" xmlns="http://www.w3.org/2000/svg">
<rect x="0.5" y="0.5" width="47" height="47" rx="23.5" fill="white" stroke="#DCDCDC"/>
<path d="M33 23H32H25V26.2H29.3045C28.6022 28.1789 26.7196 29.6 24.5 29.6C21.6827 29.6 19.4 27.3173 19.4 24.5C19.4 21.6827 21.6827 19.4 24.5 19.4C25.7999 19.4 26.9836 19.8897 27.8834 20.6916L30.2873 18.2877C28.7699 16.8732 26.7396 16 24.5 16C19.8051 16 16 19.8051 16 24.5C16 29.1949 19.8051 33 24.5 33C29.1949 33 33 29.1949 33 24.5C33 23.9306 33.1079 23.5396 33 23Z" fill="#FFC107"/>
<path d="M16.9448 20.5567L19.7209 22.6111C20.4714 20.7348 22.2891 19.4096 24.417 19.4096C25.7085 19.4096 26.8846 19.9007 27.7786 20.7049L30.167 18.2942C28.6594 16.8757 26.6421 16 24.417 16C21.1724 16 18.3601 17.848 16.9448 20.5567Z" fill="#CCCCCC"/>
<path d="M24.4867 32.9998C26.6741 32.9998 28.663 32.1803 30.167 30.8474L27.5444 28.6755C26.694 29.3055 25.6366 29.6829 24.4867 29.6829C22.2827 29.6829 20.4129 28.3079 19.7081 26.3887L16.9448 28.4714C18.3463 31.1567 21.1939 32.9998 24.4867 32.9998Z" fill="#CCCCCC"/>
<path d="M32.9999 23.0001L32.1499 23H28.4999H24.9999L24.9995 26.2225H29.3044C28.9674 27.2329 28.3548 28.1023 27.5662 28.7371H27.5679L30.1992 31.1017C30.0133 31.2798 32.9999 28.931 32.9999 24.4168C32.9999 23.812 33.1078 23.5732 32.9999 23.0001Z" fill="#CCCCCC"/>
</svg>






