<svg width="18" height="17" viewBox="0 0 18 17" fill="none" xmlns="http://www.w3.org/2000/svg">
<path d="M17 7H16H9V10.2H13.3045C12.6022 12.1789 10.7196 13.6 8.5 13.6C5.68271 13.6 3.4 11.3173 3.4 8.5C3.4 5.68271 5.68271 3.4 8.5 3.4C9.7999 3.4 10.9836 3.88975 11.8834 4.6916L14.2873 2.2877C12.7699 0.873243 10.7396 0 8.5 0C3.80508 0 0 3.80508 0 8.5C0 13.1949 3.80508 17 8.5 17C13.1949 17 17 13.1949 17 8.5C17 7.93057 17.1079 7.53955 17 7Z" fill="#6F6F6F"/>
<path d="M0.944946 4.55669L3.72102 6.61111C4.47153 4.73483 6.28926 3.40961 8.41708 3.40961C9.70863 3.40961 10.8847 3.90074 11.7787 4.70486L14.1672 2.29416C12.6595 0.87571 10.6422 0 8.41708 0C5.17256 0 2.3602 1.84798 0.944946 4.55669Z" fill="#6F6F6F"/>
<path d="M8.48679 17C10.6742 17 12.6631 16.1805 14.1672 14.8476L11.5446 12.6758C10.6941 13.3058 9.63677 13.6831 8.48679 13.6831C6.28281 13.6831 4.41307 12.3081 3.70819 10.3889L0.944946 12.4717C2.34643 15.1569 5.19406 17 8.48679 17Z" fill="#6F6F6F"/>
<path d="M17 7.00008L16.15 7H12.5H9.00003L8.99963 10.2225H13.3045C12.9675 11.2329 12.3549 12.1023 11.5663 12.7371H11.568L14.1993 15.1017C14.0134 15.2798 17 12.931 17 8.41684C17 7.81201 17.1079 7.57317 17 7.00008Z" fill="#6F6F6F"/>
</svg>


