<svg width="31" height="36" viewBox="0 0 31 36" fill="none" xmlns="http://www.w3.org/2000/svg">
<path d="M29.7919 28.905C28.7362 28.4727 28.2846 27.8989 28.3283 27.0428C28.3733 26.0435 27.8064 25.3116 27.5371 25.0224C27.6998 24.4011 28.1751 22.2517 27.5376 20.3848C26.8525 18.3864 24.761 15.3345 22.6029 12.3344C21.7194 11.1024 21.6776 9.76315 21.6293 8.21242C21.583 6.73334 21.5309 5.05679 20.7061 3.19304C19.8092 1.16369 18.0097 0 15.7686 0C14.4354 0 13.0669 0.416659 12.0138 1.14304C9.85735 2.63132 10.1424 5.87618 10.331 8.02333C10.3569 8.31735 10.3812 8.59509 10.3954 8.83222C10.5209 10.9351 10.4067 12.0434 10.2573 12.3803C10.1606 12.6004 9.68467 13.227 9.18102 13.8903C8.66014 14.5763 8.06962 15.3539 7.58556 16.0785C7.00802 16.9504 6.54179 18.2832 6.0909 19.572C5.761 20.5151 5.44939 21.4059 5.14605 21.9382C4.5711 22.9623 4.71416 23.9171 4.83361 24.3585C4.61596 24.5097 4.30151 24.8074 4.03606 25.3685C3.71524 26.0531 3.06429 26.421 1.71068 26.6813C1.08864 26.8085 0.659707 27.0701 0.435443 27.4586C0.109081 28.0241 0.286839 28.7347 0.449017 29.2203C0.688626 29.9341 0.539313 30.386 0.267836 31.2063C0.205278 31.3956 0.13434 31.61 0.0624573 31.8464C-0.0507369 32.2195 -0.00989715 32.5587 0.18356 32.8546C0.694763 33.6361 2.18647 33.9118 3.72209 34.0931C4.63897 34.2019 5.64249 34.5686 6.61308 34.9234C7.56408 35.2709 8.54742 35.6303 9.44129 35.7394C9.57714 35.7565 9.7117 35.7651 9.84142 35.7651C11.191 35.7651 11.8008 34.8696 11.9941 34.5017C12.4789 34.4028 14.1508 34.086 15.874 34.0435C17.5945 33.9944 19.2591 34.3341 19.7306 34.4397C19.8789 34.7235 20.2697 35.3716 20.8927 35.7055C21.2351 35.8927 21.7116 36 22.1997 36C22.1998 36 22.1997 36 22.1998 36C22.721 36 23.7126 35.8768 24.4974 35.0511C25.2802 34.2216 27.236 33.1626 28.6642 32.3894C28.9829 32.2168 29.2811 32.0553 29.5425 31.9096C30.3448 31.4648 30.7826 30.8293 30.7435 30.1661C30.7109 29.6152 30.3463 29.132 29.7919 28.905ZM12.0314 28.7453C11.9316 28.0418 11.0266 27.3441 9.97857 26.5363C9.12165 25.8757 8.15035 25.127 7.88277 24.4929C7.32978 23.1849 7.76568 20.8849 8.5257 19.7005C8.90128 19.1075 9.20805 18.2082 9.50479 17.3385C9.82513 16.3995 10.1565 15.4285 10.527 15.0035C11.1137 14.3399 11.6559 13.0487 11.752 12.0312C12.3015 12.5557 13.1538 13.2213 13.9412 13.2213C14.0624 13.2213 14.1801 13.2055 14.2926 13.1737C14.8313 13.0182 15.6236 12.5603 16.3899 12.1177C17.0506 11.736 17.8652 11.2652 18.1718 11.2224C18.6974 11.9771 21.7515 18.7358 22.0636 20.9063C22.3105 22.6237 22.0496 24.0434 21.9185 24.5995C21.813 24.5851 21.6871 24.5734 21.555 24.5734C20.7043 24.5734 20.4791 25.0378 20.4204 25.315C20.2696 26.0354 20.2536 28.3388 20.252 28.8564C19.9444 29.2472 18.3888 31.0876 16.1555 31.4184C15.2458 31.5506 14.3963 31.6177 13.6308 31.6177C12.9764 31.6177 12.5588 31.5671 12.3854 31.5408L11.2631 30.2567C11.7056 30.0382 12.148 29.5772 12.0314 28.7453ZM13.4555 7.57174C13.4204 7.58684 13.386 7.60301 13.3521 7.62025C13.3487 7.54423 13.3408 7.46716 13.3286 7.38985C13.2061 6.6846 12.7384 6.17268 12.2168 6.17268C12.1782 6.17268 12.1394 6.17563 12.0968 6.18213C11.7865 6.23383 11.5431 6.46694 11.4097 6.79744C11.5267 6.07224 11.9376 5.5353 12.4251 5.5353C12.9975 5.5353 13.4811 6.30677 13.4811 7.21988C13.4811 7.33496 13.4727 7.44945 13.4555 7.57174ZM17.9037 8.11552C17.9561 7.94862 17.9844 7.76803 17.9844 7.58059C17.9844 6.7527 17.4592 6.10411 16.7886 6.10411C16.1333 6.10411 15.6002 6.76639 15.6002 7.58059C15.6002 7.63606 15.6029 7.69166 15.6081 7.74713C15.5734 7.7338 15.5395 7.72081 15.5064 7.7083C15.431 7.47991 15.3929 7.2416 15.3929 6.99833C15.3929 6.00838 16.0256 5.20292 16.8034 5.20292C17.5811 5.20292 18.2139 6.00838 18.2139 6.99833C18.2139 7.41015 18.1002 7.8032 17.9037 8.11552ZM17.3302 10.0423C17.319 10.0923 17.2951 10.1145 17.0314 10.2517C16.8983 10.321 16.7326 10.4073 16.5252 10.5336L16.3866 10.6175C15.8297 10.9551 14.5258 11.7458 14.1718 11.7921C13.9314 11.8245 13.7827 11.7312 13.4483 11.504C13.3729 11.4527 13.2926 11.3981 13.207 11.3433C12.6042 10.9477 12.2165 10.5121 12.1727 10.3417C12.3692 10.1898 12.8564 9.80965 13.1058 9.58456C13.612 9.11384 14.1214 8.79751 14.3736 8.79751C14.3869 8.79751 14.3989 8.79846 14.4114 8.80082C14.7077 8.85311 15.4385 9.14477 15.9722 9.3577C16.2189 9.45614 16.4319 9.54113 16.5818 9.59495C17.0541 9.75713 17.3003 9.96463 17.3302 10.0423ZM21.5731 32.0402C21.8395 30.8385 22.1464 29.2038 22.0967 28.24C22.0853 28.0211 22.0659 27.7827 22.0472 27.5523C22.0121 27.1215 21.96 26.4812 22.0137 26.2913C22.0244 26.2863 22.0362 26.2821 22.0493 26.2784C22.0515 26.8294 22.1712 27.9284 23.0501 28.3117C23.312 28.4259 23.6113 28.4837 23.9397 28.4837C24.8201 28.4837 25.797 28.0519 26.1971 27.6517C26.4327 27.4161 26.6309 27.1279 26.7697 26.8996C26.8 26.9885 26.8187 27.1046 26.8089 27.2543C26.7566 28.067 27.1515 29.1451 27.9032 29.5424L28.0126 29.5999C28.2803 29.7403 28.9913 30.1137 29.0028 30.2907C29.0026 30.2908 28.9967 30.3116 28.9571 30.3484C28.779 30.5112 28.1521 30.8313 27.5459 31.1409C26.4705 31.69 25.2515 32.3124 24.7041 32.8882C23.9333 33.6993 23.0615 34.2441 22.5351 34.2441C22.4717 34.2441 22.414 34.2361 22.3627 34.2198C21.7909 34.0416 21.3203 33.2167 21.5731 32.0402ZM2.08449 28.9745C2.02618 28.7016 1.98015 28.4862 2.0296 28.2775C2.06549 28.1229 2.82881 27.9572 3.15482 27.8865C3.61314 27.787 4.08717 27.6842 4.39712 27.496C4.81626 27.2422 5.04324 26.7739 5.24342 26.3608C5.38837 26.062 5.53803 25.7532 5.71615 25.6518C5.72618 25.6459 5.74152 25.639 5.7708 25.639C6.10448 25.639 6.80465 26.3405 7.20809 26.9683C7.31043 27.1266 7.49999 27.4438 7.71929 27.811C8.37521 28.9084 9.27332 30.4116 9.74239 30.9154C10.1651 31.3683 10.8493 32.239 10.681 32.9858C10.5578 33.5652 9.90173 34.0364 9.74699 34.1406C9.69081 34.1534 9.62129 34.1599 9.53949 34.1599C8.64173 34.1599 6.86461 33.4129 5.90984 33.0116L5.76855 32.9523C5.2354 32.7287 4.36502 32.5879 3.52332 32.4517C2.8536 32.3432 1.93648 32.1948 1.78445 32.0608C1.66122 31.9225 1.80416 31.4732 1.93022 31.0767C2.02099 30.7918 2.11471 30.4972 2.16605 30.1887C2.23888 29.6968 2.15319 29.2963 2.08449 28.9745Z" />
</svg>
