<svg width="49" height="49" viewBox="0 0 49 49" fill="none" xmlns="http://www.w3.org/2000/svg">
<rect width="49" height="49" fill="#1E1E1E"/>
<path d="M14.9722 35.3891H10.8889V13.6113H23.1389V17.0141H14.9722V23.1391H22.4584V26.5419H14.9722V35.3891Z" fill="white"/>
<path d="M39.4723 29.7042C39.4723 31.6766 38.7575 33.2306 37.3278 34.3662C35.9082 35.5019 33.9286 36.0697 31.3892 36.0697C29.0498 36.0697 26.9802 35.6314 25.1807 34.7547V30.4513C26.6603 31.1088 27.91 31.572 28.9298 31.841C29.9595 32.1099 30.8993 32.2444 31.7491 32.2444C32.7689 32.2444 33.5487 32.0502 34.0886 31.6617C34.6385 31.2732 34.9134 30.6954 34.9134 29.9284C34.9134 29.5 34.7934 29.1215 34.5535 28.7927C34.3135 28.4541 33.9586 28.1303 33.4887 27.8215C33.0288 27.5127 32.0841 27.0196 30.6544 26.3422C29.3147 25.7146 28.3099 25.1119 27.6401 24.5342C26.9702 23.9564 26.4354 23.284 26.0355 22.517C25.6356 21.7499 25.4356 20.8534 25.4356 19.8273C25.4356 17.8948 26.0905 16.3757 27.4001 15.2699C28.7198 14.1642 30.5394 13.6113 32.8589 13.6113C33.9986 13.6113 35.0834 13.7458 36.1131 14.0148C37.1529 14.2837 38.2376 14.6623 39.3674 15.1504L37.8677 18.7515C36.698 18.2733 35.7282 17.9396 34.9584 17.7504C34.1986 17.5611 33.4487 17.4665 32.7089 17.4665C31.8291 17.4665 31.1543 17.6707 30.6844 18.0791C30.2145 18.4875 29.9795 19.0205 29.9795 19.6779C29.9795 20.0863 30.0745 20.445 30.2645 20.7538C30.4544 21.0526 30.7544 21.3465 31.1643 21.6354C31.5842 21.9143 32.5689 22.4223 34.1186 23.1595C36.1681 24.1357 37.5728 25.1169 38.3326 26.1031C39.0924 27.0794 39.4723 28.2797 39.4723 29.7042Z" fill="#FD6F29"/>
</svg>







