<svg width="47" height="47" viewBox="0 0 47 47" fill="none" xmlns="http://www.w3.org/2000/svg">
<mask id="mask0" mask-type="alpha" maskUnits="userSpaceOnUse" x="0" y="0" width="47" height="47">
<rect width="47" height="47" rx="23.5" fill="white"/>
</mask>
<g mask="url(#mask0)">
<rect y="-1" width="49" height="49" fill="#1E1E1E"/>
<path d="M14.972 34.3891H10.8887V12.6113H23.1387V16.0141H14.972V22.1391H22.4581V25.5419H14.972V34.3891Z" fill="white"/>
<path d="M39.4723 28.7042C39.4723 30.6766 38.7575 32.2306 37.3278 33.3662C35.9082 34.5019 33.9286 35.0697 31.3892 35.0697C29.0498 35.0697 26.9802 34.6314 25.1807 33.7547V29.4513C26.6603 30.1088 27.91 30.572 28.9298 30.841C29.9595 31.1099 30.8993 31.2444 31.7491 31.2444C32.7689 31.2444 33.5487 31.0502 34.0886 30.6617C34.6385 30.2732 34.9134 29.6954 34.9134 28.9284C34.9134 28.5 34.7934 28.1215 34.5535 27.7927C34.3135 27.4541 33.9586 27.1303 33.4887 26.8215C33.0288 26.5127 32.0841 26.0196 30.6544 25.3422C29.3147 24.7146 28.3099 24.1119 27.6401 23.5342C26.9702 22.9564 26.4354 22.284 26.0355 21.517C25.6356 20.7499 25.4356 19.8534 25.4356 18.8273C25.4356 16.8948 26.0905 15.3757 27.4001 14.2699C28.7198 13.1642 30.5394 12.6113 32.8589 12.6113C33.9986 12.6113 35.0834 12.7458 36.1131 13.0148C37.1529 13.2837 38.2376 13.6623 39.3674 14.1504L37.8677 17.7515C36.698 17.2733 35.7282 16.9396 34.9584 16.7504C34.1986 16.5611 33.4487 16.4665 32.7089 16.4665C31.8291 16.4665 31.1543 16.6707 30.6844 17.0791C30.2145 17.4875 29.9795 18.0205 29.9795 18.6779C29.9795 19.0863 30.0745 19.445 30.2645 19.7538C30.4544 20.0526 30.7544 20.3465 31.1643 20.6354C31.5842 20.9143 32.5689 21.4223 34.1186 22.1595C36.1681 23.1357 37.5728 24.1169 38.3326 25.1031C39.0924 26.0794 39.4723 27.2797 39.4723 28.7042Z" fill="#FD6F29"/>
</g>
</svg>






