<svg width="17" height="17" viewBox="0 0 17 17" fill="none" xmlns="http://www.w3.org/2000/svg">
<mask id="mask0" mask-type="alpha" maskUnits="userSpaceOnUse" x="0" y="0" width="17" height="17">
<path fill-rule="evenodd" clip-rule="evenodd" d="M0 0H17V17H0V0Z" fill="white"/>
</mask>
<g mask="url(#mask0)">
<path fill-rule="evenodd" clip-rule="evenodd" d="M7.10929 1.79054C10.0071 1.79054 12.364 4.06632 12.364 6.86374C12.364 9.66117 10.0071 11.9369 7.10929 11.9369C4.21179 11.9369 1.8546 9.66117 1.8546 6.86374C1.8546 4.06632 4.21179 1.79054 7.10929 1.79054ZM16.7418 15.4843L12.5507 11.2762C13.6282 10.0396 14.2186 8.48359 14.2186 6.86374C14.2186 3.07913 11.0293 0 7.10929 0C3.18929 0 0 3.07913 0 6.86374C0 10.6484 3.18929 13.7275 7.10929 13.7275C8.58091 13.7275 9.9833 13.299 11.1823 12.4854L15.4049 16.7255C15.5814 16.9024 15.8188 17 16.0732 17C16.314 17 16.5424 16.9114 16.7161 16.7502C17.0842 16.4079 17.096 15.8403 16.7418 15.4843Z" fill="#FD6F29"/>
</g>
</svg>
