<svg width="23" height="26" viewBox="0 0 23 26" fill="none" xmlns="http://www.w3.org/2000/svg">
<path d="M18.9562 18.3787C17.9965 18.3787 17.1375 18.7676 16.483 19.3808L7.47008 13.9663C7.53513 13.6662 7.58546 13.364 7.58546 13.052C7.58546 12.74 7.53407 12.4388 7.47008 12.1376L16.3813 6.77402C17.0609 7.42403 17.9598 7.83026 18.9562 7.83026C21.0571 7.83026 22.75 6.085 22.75 3.9151C22.75 1.74956 21.056 0 18.9562 0C16.8595 0 15.1656 1.74956 15.1656 3.91406C15.1656 4.23038 15.217 4.52724 15.281 4.8284L6.3698 10.1963C5.68908 9.54308 4.79127 9.1379 3.79376 9.1379C1.6929 9.1379 0 10.8864 0 13.052C0 15.2175 1.6929 16.9671 3.79376 16.9671C4.79017 16.9671 5.68908 16.5608 6.36874 15.9109L15.3659 21.3373C15.304 21.6136 15.2652 21.9017 15.2652 22.1888C15.2652 24.2905 16.9234 26 18.9551 26C20.9889 26 22.6482 24.2916 22.6482 22.1888C22.6482 20.0861 20.99 18.3787 18.9562 18.3787Z" fill="#FD6F29"/>
</svg>





