<svg width="21" height="18" viewBox="0 0 21 18" fill="none" xmlns="http://www.w3.org/2000/svg">
<path  d="M20.9876 0.676622L17.4238 17.5529C17.3398 17.9513 16.8652 18.1319 16.5304 17.8923L11.6654 14.4151C11.3701 14.2039 10.9673 14.2152 10.6846 14.4421L7.98729 16.6067C7.67429 16.8587 7.20256 16.7183 7.0827 16.3387L5.20977 10.4089L0.370932 8.63097C-0.120599 8.44969 -0.124798 7.76653 0.365332 7.58067L20.224 0.0386174C20.645 -0.121655 21.0794 0.241419 20.9876 0.676622ZM6.78097 9.46249L16.2378 3.72846C16.4077 3.62575 16.5826 3.85198 16.4365 3.98521L8.63195 11.1274C8.35756 11.3787 8.18069 11.7153 8.13049 12.0805L7.86476 14.0201C7.82936 14.279 7.46003 14.3046 7.3873 14.054L6.36483 10.5171C6.2479 10.1136 6.4185 9.68268 6.78097 9.46249Z" />
</svg>



