<svg width="126" height="126" viewBox="0 0 126 126" fill="none" xmlns="http://www.w3.org/2000/svg">
<path d="M63 4.87558e-06C97.7939 3.35469e-06 126 28.2061 126 63C126 97.7939 97.7939 126 63 126C28.2061 126 -1.23293e-06 97.7939 -2.75382e-06 63C-4.27471e-06 28.2061 28.2061 6.39647e-06 63 4.87558e-06ZM63 109.62C88.7475 109.62 109.62 88.7475 109.62 63C109.62 37.2525 88.7475 16.38 63 16.38C37.2525 16.38 16.38 37.2525 16.38 63C16.38 88.7475 37.2525 109.62 63 109.62Z" fill="#EEEEEE"/>
<path d="M63 4.87558e-06C71.2733 4.51394e-06 79.4655 1.62954 87.1091 4.79559C94.7526 7.96164 101.698 12.6022 107.548 18.4523C113.398 24.3024 118.038 31.2474 121.204 38.8909C124.37 46.5345 126 54.7267 126 63L109.62 63C109.62 56.8778 108.414 50.8155 106.071 45.1593C103.728 39.5031 100.294 34.3637 95.9653 30.0347C91.6362 25.7056 86.4969 22.2716 80.8407 19.9287C75.1845 17.5859 69.1222 16.38 63 16.38L63 4.87558e-06Z" fill="#FD6F29"/>
</svg>
