<svg width="19" height="15" viewBox="0 0 19 15" fill="none" xmlns="http://www.w3.org/2000/svg">
<path fill-rule="evenodd" clip-rule="evenodd" d="M5.97542 15C13.1455 15 17.0665 9.22962 17.0665 4.226C17.0665 4.06203 17.0631 3.8988 17.0554 3.73645C17.8165 3.20202 18.478 2.53514 19 1.77583C18.3016 2.07719 17.5498 2.28036 16.7614 2.37198C17.5662 1.90326 18.1841 1.16144 18.4755 0.277294C17.7221 0.711027 16.8883 1.02656 16.0004 1.19636C15.289 0.460384 14.2759 0 13.1549 0C11.002 0 9.25619 1.69588 9.25619 3.78643C9.25619 4.08366 9.29047 4.37255 9.35735 4.64984C6.1177 4.49163 3.24482 2.98475 1.32248 0.69353C0.987392 1.25299 0.794504 1.90326 0.794504 2.59679C0.794504 3.91054 1.48276 5.07028 2.5292 5.74875C1.88982 5.72963 1.28904 5.55894 0.763648 5.27501C0.762812 5.2908 0.762812 5.30668 0.762812 5.32329C0.762812 7.15744 2.10664 8.68847 3.89021 9.03567C3.5628 9.1222 3.2183 9.16893 2.86262 9.16893C2.61144 9.16893 2.36717 9.14472 2.12982 9.10057C2.62603 10.605 4.06501 11.6998 5.77144 11.7306C4.43696 12.7464 2.75629 13.3516 0.929936 13.3516C0.615372 13.3516 0.30514 13.3341 0 13.2991C1.72528 14.3731 3.77363 15 5.97542 15Z" />
</svg>
