<svg width="21" height="12" viewBox="0 0 21 12" fill="none" xmlns="http://www.w3.org/2000/svg">
<path  d="M20.5182 0.812526C20.6642 0.344211 20.5182 0 19.8234 0H17.526C16.9418 0 16.6725 0.297316 16.5264 0.625105C16.5264 0.625105 15.3582 3.36521 13.7031 5.145C13.1676 5.66021 12.9243 5.82426 12.632 5.82426C12.4861 5.82426 12.2747 5.66021 12.2747 5.19189V0.812526C12.2747 0.250421 12.1051 0 11.6183 0H8.00812C7.64316 0 7.42359 0.260842 7.42359 0.508105C7.42359 1.041 8.25099 1.16384 8.33632 2.66258V5.91774C8.33632 6.63158 8.20241 6.76089 7.91032 6.76089C7.13149 6.76089 5.23695 4.00879 4.11335 0.859421C3.89313 0.247263 3.67225 0 3.0851 0H0.787684C0.131281 0 0 0.297316 0 0.625105C0 1.21058 0.778822 4.11458 3.62646 7.95537C5.52495 10.5782 8.19979 12 10.6337 12C12.0941 12 12.2747 11.6842 12.2747 11.1403V9.1579C12.2747 8.52632 12.4131 8.40032 12.8755 8.40032C13.2162 8.40032 13.8004 8.56421 15.1634 9.82879C16.7211 11.3275 16.978 12 17.8542 12H20.1516C20.808 12 21.1362 11.6842 20.9468 11.061C20.7397 10.4398 19.9958 9.53874 19.0091 8.47042C18.4736 7.86158 17.6704 7.206 17.427 6.87805C17.0862 6.45663 17.1837 6.26905 17.427 5.89437C17.427 5.89437 20.2261 2.10063 20.5182 0.812526Z" />
</svg>


