<svg width="24" height="18" viewBox="0 0 24 18" fill="none" xmlns="http://www.w3.org/2000/svg">
<path fill-rule="evenodd" clip-rule="evenodd" d="M21.3682 0.537097C22.4045 0.841935 23.2227 1.7129 23.4955 2.81613C24 4.81935 24 9 24 9C24 9 24 13.1806 23.5091 15.1839C23.2227 16.3016 22.4182 17.1726 21.3818 17.4629C19.5 18 12 18 12 18C12 18 4.5 18 2.63182 17.4629C1.59545 17.1581 0.777273 16.2871 0.504545 15.1839C0 13.1806 0 9 0 9C0 9 0 4.81935 0.490909 2.81613C0.777273 1.69839 1.58182 0.827419 2.61818 0.537097C4.5 0 12 0 12 0C12 0 19.5 0 21.3682 0.537097ZM15.8182 9.00021L9.54545 12.8034V5.19698L15.8182 9.00021Z" fill="#6F6F6F"/>
</svg>



